<svg xmlns="http://www.w3.org/2000/svg" width="204.8" height="50.4" viewBox="0 0 1024 252"><path fill="var(--title,#002b3c)" d="M733.39 32.5c-14.61 0-24.3 8.39-24.3 21.24 0 8.23 3.3 13.66 9.9 17.32 6.6 3.64 15.94 5.9 22.41 9.32 6.48 3.42 9.19 7.52 9.19 14.6 0 10.03-6.26 16.62-18.53 16.62-7.89 0-12.14-2.83-17.9-8.01l-5.77-5.18h-1.3l4.84 14.98h3.18c5.64 0 10.6.71 16.74.71 16.15 0 26.54-9.8 26.54-24.41 0-9.1-3.55-14.62-10.39-18.29-6.84-3.63-16.52-6-22.54-9.18-6-3.18-8.6-7.3-8.6-12.98 0-8.97 6.14-14.27 16.4-14.27 6.6 0 10.27 1.54 16.16 6.84l5.89 5.3h1.41l-4.34-13.9h-4c-5.31 0-9.81-.71-15-.71zm-426.1.68v.58l4 5.18V89.2c.02 16.04 10.07 25.34 29.26 25.34 19.2 0 29.72-9.77 29.72-25.7V42.94l5.09-9.19v-.58h-12.98v.58l5.05 9.2v45.52c0 14.03-8.5 21.7-24.07 21.7s-22.04-7.42-22.04-21.45V38.94l4-5.18v-.58zm78.08 0v.58l5.18 6.14v63.69l-5.08 9.22v.58h12.98v-.58l-5.06-9.22V40.02h1.05l42.7 73.37h10.14V42.98l5.08-9.22v-.58h-12.98v.58l5.06 9.22v63.1L402 33.19Zm78.55 0v.58l4.01 5.21-.03 68.63-4 5.2v.6h18.06v-.6l-4-5.2V38.97l4-5.2v-.6zm27.13 0v.58l4.81 6.26 25.5 73.37h9.52l23.15-70.78 6.35-8.85v-.58h-12.6v.58l3.54 8.39-21.49 65.82-23.92-69.24 1.17-4.97v-.58zm78.06 0v.58l4 5.21v68.63l-4 5.2v.6h51.79l5.42-15.33h-1.41l-15.45 12.86h-26.33l.04-37.18h33.26v-4.72h-33.26V35.68h24.5l14.18 11.65h1.42l-4.62-14.15zm67.82 0v.58l4 5.18v68.66l-4 5.18v.58h18.03v-.58l-4-5.18V73.62h8.01l30.89 39.74h11.8v-.34l.04.03-30.77-39.52c13.44-.83 21.46-9.22 21.46-20.53 0-11.93-8.97-19.82-23.95-19.82zm134.71 0v.58l4.01 5.21-.03 68.63-4 5.2v.6h18.06v-.6l-4.01-5.2V38.97l4-5.2v-.6zm131.73 0 2.6 6.47-24.8 64.28-6.47 8.85v.58h12.61v-.58l-3.54-8.39 6.84-17.94h34.1l8.38 21.36-1.17 4.97v.58h16.15v-.55l-4.71-6.14-29.01-73.5zm-98.65.03v.58l4.01 5.18v68.66l-4 5.18v.58h33.38c22.75 0 37.98-16.74 37.98-40.44 0-23.34-14.98-39.74-37.98-39.74zm147.91 0v.58l4.01 5.18v68.66l-4 5.18v.58h33.38c22.75 0 37.98-16.74 37.98-40.44 0-23.34-14.98-39.74-37.98-39.74Zm-301.7 2.43h16.52c9.34 0 14.4 6.26 14.4 17.7s-4.94 17.7-14.03 17.7h-16.9zm167.85.04h18.53c17.94 0 27.83 13.56 27.83 37.73h-.03c0 23.95-9.92 37.52-27.83 37.52h-18.5zm147.91 0h18.53c17.94 0 27.84 13.56 27.84 37.73h-.03c0 23.95-9.93 37.52-27.84 37.52h-18.5zm-59.31 7.18 15.44 39.02H892.4ZM774.7 137.8c-23.37 0-39.65 16.74-39.65 41.74h.07c0 23.95 14.95 40.35 36.9 40.35 15.44 0 24.87-8.05 29-15.23l-1.63-1.17c-4.5 6.97-12.98 12.27-24.78 12.27-18.38 0-28.77-12.85-28.77-37.98 0-25.7 11.07-37.52 28.3-37.52 7.9 0 12.27 2.84 18.04 7.56l5.76 4.71h1.42l-4.13-14.02h-3.42c-5.55 0-11.1-.71-17.11-.71zm-382.39.67v.59l4.01 5.21v68.62l-4 5.21v.59h51.75l5.43-15.35h-1.42l-15.45 12.85h-26.3v-37.15h33.27v-4.71h-33.26v-33.39h24.54l14.15 11.68h1.42l-4.6-14.15zm97.54 0v.59l4.35 6.14v63.68l-5.06 9.22v.59h12.98v-.59l-5.09-9.22v-63.56h1.08l27.47 73.37h1.63l27.29-73.37h.92v67.57l-4 5.21v.59h17.9v-.59l-4-5.2.03-68.63 4-5.21v-.59h-15.23l-23.82 64.16-23.93-64.16zm94.12 0v.59l4 5.18v50.25c.02 16.04 10.07 25.34 29.26 25.34 19.2 0 29.72-9.77 29.72-25.71v-45.87l5.09-9.19v-.59h-12.98v.59l5.05 9.19v45.53c0 14.03-8.5 21.7-24.07 21.7s-22.05-7.43-22.05-21.45v-49.79l4.01-5.18v-.59zm81.63 0v.59l4 5.18v68.65l-4 5.18v.59h18.03v-.59l-4-5.18v-33.97h8.01l30.89 39.74h11.8v-.34l.04.03-30.77-39.52c13.44-.83 21.46-9.22 21.46-20.53 0-11.93-8.97-19.83-23.96-19.83zm145.78 0v.59l4.01 5.21-.03 68.62-4 5.21v.59h18.06v-.59l-4.01-5.2v-68.63l4-5.21v-.59zm55.68 0 2.59 6.48-24.79 64.27-6.5 8.85v.59h12.6v-.59l-3.54-8.38 6.84-17.94h34.1l8.38 21.36-1.17 4.96v.59h16.16v-.59l.03.03-4.72-6.13-29-73.5zm-559.37.04v.58l4 5.18v68.65l-4 5.18v.59h33.39c22.75 0 37.98-16.74 37.98-40.45 0-23.33-14.99-39.73-37.98-39.73zm371.9 2.43h16.53c9.34 0 14.4 6.26 14.4 17.7 0 11.43-4.94 17.7-14.03 17.7h-16.9zm-357.84.03h18.53c17.94 0 27.83 13.57 27.83 37.73h-.03c0 23.96-9.93 37.52-27.84 37.52h-18.5zm549.28 7.18 15.45 39.03h-30.43z"/><path fill="var(--title,#e94734)" d="M125.78.2C56.42.2 0 56.63 0 126.02c0 69.4 52.6 121.83 118.63 125.6h.12a133.97 133.97 0 0 0 13.56.02h.06c66.34-3.42 119.25-58.48 119.25-125.62l-.04-.03C251.58 56.64 195.14.2 125.78.2zm4.87 4.43a121.12 121.12 0 0 1 74.6 29.57 127.08 127.08 0 0 0-36.93 63v.04c-3.67-36.13-18.44-64.95-31.1-83.64l-.13-.18a169.41 169.41 0 0 0-6.44-8.79zm-9.71.06c-2.22 2.84-4.41 5.8-6.48 8.88-12.73 18.78-27.5 47.6-31.16 83.73a127.52 127.52 0 0 0-36.93-63.04h-.04a120.94 120.94 0 0 1 74.6-29.57Zm4.93.71c2.68 3.3 5.3 6.82 7.8 10.48 14.4 21.24 31.5 55.65 31.29 99V137.18a43.66 43.66 0 0 0-27.34-23.06l-2.75-.77v53.67h4.29v-47.87c15.29 5.6 25.74 20.19 25.77 36.47v9.43h-4.6a11.2 11.2 0 0 1-11.19-11.2v-15.34h-4.28v15.35c0 8.54 6.93 15.47 15.47 15.47h4.6v9.99a11.29 11.29 0 0 0-7.06-2.46 11.42 11.42 0 0 0-11.22 9.67l4.25.62a7.03 7.03 0 0 1 14 1.02v31.04c0 8.26 6.35 15.08 14.4 15.85-4.9 2.4-10.03 4.5-15.3 6.26a6.76 6.76 0 0 0-6.47-4.84h-9.9v4.28h9.9c1.14 0 2.1.77 2.4 1.82a123.53 123.53 0 0 1-18.52 3.88 11.86 11.86 0 0 0 2.1-6.4c0-4.2 3.41-7.62 7.6-7.62v-4.29a11.91 11.91 0 0 0-11.9 11.63c0 4-3.14 7.33-7.11 7.6a122.24 122.24 0 0 1-12.98-.03v-.02a7.58 7.58 0 0 1-6.75-7.55 11.91 11.91 0 0 0-11.9-11.63v4.29c4.19 0 7.61 3.42 7.61 7.61.06 2.38.8 4.56 2.07 6.41a125.34 125.34 0 0 1-18.44-3.85 2.51 2.51 0 0 1 2.4-1.82h9.9v-4.28h-9.9a6.8 6.8 0 0 0-6.47 4.84 120.48 120.48 0 0 1-15.29-6.26 15.94 15.94 0 0 0 14.43-15.85v-32.21a7.1 7.1 0 0 1 7.06-5.89c.03 0 3.2-.15 8.3 1.97a57.8 57.8 0 0 0 23.8 5.06 59 59 0 0 0 16.11-2.25l-1.17-4.13a54.22 54.22 0 0 1-37.02-2.6c-5.74-2.43-9.47-2.37-10.2-2.33-2.56 0-4.97.92-6.88 2.4v-14.74A15.52 15.52 0 0 0 98 169.38h7v-4.28h-7c-6.2 0-11.22-5.03-11.22-11.22v-11.78l36.6 36.6 3.04-3.06-9.52-9.52V113.3l-2.71.77a43.9 43.9 0 0 0-18.29 10.39 16.07 16.07 0 0 0-4.22-.62h-4.9v-8.97c-.22-43.34 16.9-77.75 31.35-99.08 2.44-3.6 5.06-7.09 7.74-10.39zm-.12 17.3a11 11 0 0 0-9.53 16.43l3.73-2.13h.06a6.65 6.65 0 1 1 11.47.1l3.67 2.21a11.04 11.04 0 0 0 1.57-5.64 11 11 0 0 0-10.97-10.97zm-46.4 3.26a6.7 6.7 0 0 0-4.84 2.07 6.75 6.75 0 0 0-1.94 4.87l4.28-.06c0-.68.25-1.33.74-1.82.5-.5 1.11-.77 1.82-.77a2.62 2.62 0 0 1 2.62 2.56l4.26-.06a6.86 6.86 0 0 0-6.94-6.79zm92.58 0a6.9 6.9 0 0 0-6.81 6.94l4.28-.06c0-.68.24-1.33.74-1.82.49-.5 1.1-.77 1.82-.77a2.57 2.57 0 0 1 2.59 2.56h.03l4.28-.06a6.7 6.7 0 0 0-2.06-4.84 6.7 6.7 0 0 0-4.87-1.95zM87.15 33.7l-2.16 3.7c.59.34 1.02.9 1.2 1.57a2.59 2.59 0 0 1-1.85 3.14c-.67.2-1.35.07-1.94-.27l-2.16 3.7a6.94 6.94 0 0 0 5.21.74 6.82 6.82 0 0 0 4.9-8.39 6.82 6.82 0 0 0-3.17-4.19zm92.54 0-2.15 3.7c.58.34 1.01.9 1.2 1.57.18.68.06 1.36-.28 1.95-.34.58-.9 1.01-1.57 1.2-.68.18-1.36.06-1.94-.28l-2.16 3.7a6.94 6.94 0 0 0 5.2.74 6.82 6.82 0 0 0 4.91-8.39 6.82 6.82 0 0 0-3.18-4.19zm-107.95.16a6.79 6.79 0 0 0-3.09 4.25 6.88 6.88 0 0 0 10.3 7.43l-2.25-3.67c-1.2.74-2.8.37-3.55-.83v.03a2.53 2.53 0 0 1-.3-1.94c.15-.68.55-1.23 1.14-1.6zm92.57 0a6.78 6.78 0 0 0-3.08 4.25 6.77 6.77 0 0 0 .83 5.18 6.78 6.78 0 0 0 5.86 3.27c1.26 0 2.5-.34 3.6-1.02l-2.25-3.64c-.58.37-1.26.47-1.94.31a2.53 2.53 0 0 1-1.91-3.08c.15-.68.55-1.23 1.14-1.6zM43.1 37.13c25 23.2 39.33 55.48 39.33 88.93v93.23c0 6.4-5.2 11.62-11.62 11.62H64.5C28.52 209.79 4.3 170.7 4.3 126.06v-.03c0-35.08 14.95-66.7 38.8-88.9zm165.42 0a121.12 121.12 0 0 1 38.81 88.9c0 44.67-24.23 83.73-60.2 104.84h-6.33c-6.4 0-11.62-5.2-11.62-11.62v-49.88h6.17v-4.28h-6.17v-14a11.11 11.11 0 0 1 11.16-11.07h8.79v-4.28h-8.79c-4.28 0-8.26 1.73-11.16 4.78v-14.46c0-33.45 14.34-65.72 39.34-88.93zm-73.1 2.34-.55 4.25v.03a7.62 7.62 0 0 1 5.3 11.84l3.55 2.4a11.96 11.96 0 0 0-8.3-18.53zm-19.26.03a11.94 11.94 0 0 0-8.3 18.53v-.04l3.55-2.4a7.62 7.62 0 0 1 5.3-11.84zM43 47.3a11 11 0 0 0-9.52 16.43l3.73-2.13h.06a6.66 6.66 0 1 1 11.47.1l3.67 2.21a11.04 11.04 0 0 0 1.57-5.64A11 11 0 0 0 43 47.3zm165.49 0a11 11 0 0 0-9.53 16.43l3.73-2.13h.06a6.66 6.66 0 1 1 11.47.1l3.67 2.21a11.04 11.04 0 0 0 1.57-5.64A11 11 0 0 0 208.5 47.3zM107.77 58.15a11.9 11.9 0 0 0-3.64 19.94l2.87-3.2a7.43 7.43 0 0 1-2-2.93v.03a7.6 7.6 0 0 1 4.35-9.83zm36.07.03-1.56 3.98a7.6 7.6 0 0 1 2.33 12.76l2.87 3.2a12.01 12.01 0 0 0 3.14-4.56c2.35-6.1-.7-13-6.78-15.38zm-1.56 3.98h-.01v.03zm-89.6 1.9-.55 4.26v.03a7.62 7.62 0 0 1 5.3 11.84l3.55 2.4a11.96 11.96 0 0 0-8.3-18.53zm165.46 0-.56 4.26v.03a7.62 7.62 0 0 1 5.3 11.84l3.55 2.4a11.96 11.96 0 0 0-8.3-18.53zm-184.7.04a11.92 11.92 0 0 0-8.28 18.53v-.03l3.54-2.41A7.62 7.62 0 0 1 34 68.35zm165.46 0a11.94 11.94 0 0 0-8.3 18.53v-.03l3.55-2.41a7.64 7.64 0 0 1 5.3-11.84zm-75.22 1.32-2.5 3.49c.99.7 1.67 1.7 2.07 2.8-1.48.13-2.93.31-4.38.62a12.76 12.76 0 0 0-2.75-3.32l-2.8 3.26a8.45 8.45 0 0 1 2.4 3.39l.72 1.79 1.85-.53a27.76 27.76 0 0 1 14.89.06l1.88.53.7-1.82a8.4 8.4 0 0 1 2.44-3.4l-2.77-3.26c-1.11.96-2.07 2.1-2.8 3.36a30 30 0 0 0-4.39-.65 5.73 5.73 0 0 1 2.07-2.83l-2.5-3.49a9.8 9.8 0 0 0-2.06 2 9.81 9.81 0 0 0-2.07-2zm-7.56 3.6V69l-.05-.03.05.04zm9.32 12.62a8.15 8.15 0 0 0-8.14 8.14v12.58a3.85 3.85 0 0 1-3.85 3.85v4.28a8.15 8.15 0 0 0 8.13-8.13V89.78a3.85 3.85 0 0 1 3.86-3.86zm5.48 0v4.28a3.85 3.85 0 0 1 3.86 3.86v5.85a8.2 8.2 0 0 0 3.02 6.35l2.68-3.32a3.77 3.77 0 0 1-1.42-3v-5.88a8.15 8.15 0 0 0-8.14-8.14zm-14.11.03a8.15 8.15 0 0 0-8.14 8.14v12.58a3.85 3.85 0 0 1-3.86 3.85v4.29a8.15 8.15 0 0 0 8.14-8.14V89.8a3.85 3.85 0 0 1 3.86-3.85zm-91.75 1.08a11.91 11.91 0 0 0-3.63 19.95v.02l2.86-3.2a7.6 7.6 0 0 1 2.34-12.76zm165.42 0a11.91 11.91 0 0 0-3.63 19.95l2.86-3.21a7.43 7.43 0 0 1-2-2.93v.03a7.6 7.6 0 0 1 4.35-9.83zm-129.38.03-1.56 3.98a7.6 7.6 0 0 1 2.33 12.76l2.87 3.2a12.01 12.01 0 0 0 3.14-4.56c2.35-6.1-.7-13-6.78-15.38zm-1.56 3.98h-.01v.03zm167.04-3.98-1.56 3.98a7.6 7.6 0 0 1 2.33 12.76l2.87 3.2a12.01 12.01 0 0 0 3.15-4.56c2.34-6.1-.71-13-6.79-15.38zm-1.56 3.98h-.01v.03zM38.46 87.82l-3.02 3.03 4.86 4.86 3.03-3.03zm10.47 0-4.86 4.86 3.03 3.03 4.86-4.86zm-1.8 8.65-3.05 3.05 4.88 4.84v-.03l14.73 14.76 3.05-3.05-15.6-15.57zm-6.85 0-4.84 4.84 3.02 3.03 4.84-4.84zm93.42 5.89a3.85 3.85 0 0 1-3.85 3.85v4.28a8.15 8.15 0 0 0 8.13-8.13zm-61.81 13.71-8 8 3.03 3.03 8-8zm40.7 3.02v42.73h-.04l-5.45-5.45v-17.02a15.44 15.44 0 0 0-6.97-12.95 39.33 39.33 0 0 1 12.45-7.3zm11.06.4v4.2h4.28v-4.2zm-47.17 1.15-8 8 3.03 3.03 8-8zm42.8 3.23v4.29h4.15v-4.29zm8.72 0v4.29h4.34v-4.29zm-41.25 4.32h4.87c3.51 0 6.75 1.6 8.88 4.38v.03a11.07 11.07 0 0 1 2.31 6.78v12.73l-16.06-16.06zm36.9.15v4.23h4.28v-4.23zm-46.57.9-4 3.98 3.04 3.03 3.99-3.99zm-42.12 2.19v4.28h23.12v-4.28zm173.59.46-.8 4.22a14.17 14.17 0 0 1 10.85 10.85l4.22-.8a18.35 18.35 0 0 0-14.27-14.27zm-6.42 1.54L179 156.56l3.03 3.03 23.13-23.13zm-165.85 5.61a12.4 12.4 0 0 0-12.39 12.4h4.26a8.12 8.12 0 0 1 16.21 0h4.29a8.12 8.12 0 0 1 16.21 0h4.29a12.4 12.4 0 0 0-22.63-6.98 12.37 12.37 0 0 0-10.24-5.42zm187.13 7.7-.8 4.23a14.1 14.1 0 0 1 10.85 10.85l4.22-.8a18.31 18.31 0 0 0-14.27-14.27zm-5.52 1.97-23.6 23.57 3.03 3.04 23.6-23.58zm-147.23 3.34c0 14.4-10.02 30.83-22.35 36.62l1.81 3.89c13.94-6.54 24.82-24.36 24.82-40.51zm-52.6.06c0 15.9 11.13 34.07 24.82 40.48l1.82-3.89c-12.33-5.8-22.35-22.2-22.35-36.59Zm161.14 9.13-.8 4.22a14.18 14.18 0 0 1 10.85 10.85l4.22-.8a18.35 18.35 0 0 0-14.27-14.27zm54.02 3.11-23.21 23.22 3.03 3.03 23.21-23.22zm-39.16 11.75-.8 4.22a14.13 14.13 0 0 1 10.85 10.85l4.22-.8a18.3 18.3 0 0 0-14.27-14.27zm-86.87 18.25-4.13 1.1a23.59 23.59 0 0 0 31 15.91 35.9 35.9 0 0 1-24.35 9.56v4.28a40.11 40.11 0 0 0 26.58-10.08 104.97 104.97 0 0 1-9.93 15.6l3.4 2.62a107.85 107.85 0 0 0 18.8-37.88l-4.13-1.11c-.16.52-.34 1.01-.5 1.54a19.33 19.33 0 0 1-18.12 12.7c-8.7 0-16.34-5.86-18.62-14.24z"/></svg>